{
	"asset":{
		"generator":"Khronos glTF Blender I/O v4.3.47",
		"version":"2.0"
	},
	"extensionsUsed":[
		"KHR_materials_transmission",
		"KHR_materials_specular",
		"KHR_materials_ior"
	],
	"scene":0,
	"scenes":[
		{
			"name":"Scene",
			"nodes":[
				1
			]
		}
	],
	"nodes":[
		{
			"mesh":0,
			"name":"pet2",
			"translation":[
				0.0004892583820037544,
				-1.0413432121276855,
				0.09929914027452469
			]
		},
		{
			"children":[
				0
			],
			"mesh":1,
			"name":"Dogpot",
			"translation":[
				0,
				1.0506770610809326,
				7.833429845049977e-05
			]
		}
	],
	"materials":[
		{
			"doubleSided":true,
			"name":"body.003",
			"pbrMetallicRoughness":{
				"baseColorFactor":[
					0.501215398311615,
					0.5088813900947571,
					0.4698438048362732,
					1
				],
				"metallicFactor":0,
				"roughnessFactor":0.699999988079071
			}
		},
		{
			"doubleSided":true,
			"name":"nose.003",
			"pbrMetallicRoughness":{
				"baseColorFactor":[
					0.0027610105462372303,
					0.0027610105462372303,
					0.0027610105462372303,
					1
				],
				"metallicFactor":0,
				"roughnessFactor":0.4000000059604645
			}
		},
		{
			"doubleSided":true,
			"extensions":{
				"KHR_materials_transmission":{
					"transmissionFactor":0.10000000149011612
				},
				"KHR_materials_ior":{
					"ior":1.4500000476837158
				}
			},
			"name":"eyes.003",
			"pbrMetallicRoughness":{
				"baseColorTexture":{
					"index":0
				},
				"metallicFactor":0,
				"roughnessFactor":0.20000000298023224
			}
		},
		{
			"doubleSided":true,
			"name":"Material.015",
			"pbrMetallicRoughness":{
				"baseColorFactor":[
					0,
					0.5654333829879761,
					0.15994088351726532,
					1
				],
				"metallicFactor":0.30000001192092896,
				"roughnessFactor":0.8500000238418579
			}
		},
		{
			"doubleSided":true,
			"emissiveFactor":[
				0.09936931729316711,
				0.07886894792318344,
				0.09837758541107178
			],
			"name":"Material.014",
			"pbrMetallicRoughness":{
				"baseColorFactor":[
					0.48787015676498413,
					0.10887427628040314,
					0.2004912793636322,
					1
				],
				"metallicFactor":0,
				"roughnessFactor":0.5
			}
		},
		{
			"doubleSided":true,
			"name":"Material.017",
			"pbrMetallicRoughness":{
				"baseColorFactor":[
					0.01640183851122856,
					0.4259791970252991,
					0.12083861976861954,
					1
				],
				"metallicFactor":0,
				"roughnessFactor":0.5
			}
		},
		{
			"doubleSided":true,
			"name":"Material.016",
			"pbrMetallicRoughness":{
				"baseColorFactor":[
					0.011742915026843548,
					0.011742915026843548,
					0.011742915026843548,
					1
				],
				"metallicFactor":0.6000000238418579,
				"roughnessFactor":0.25
			}
		},
		{
			"doubleSided":true,
			"extensions":{
				"KHR_materials_specular":{
					"specularColorFactor":[
						1.2719032764434814,
						1.2719032764434814,
						1.2719032764434814
					]
				},
				"KHR_materials_ior":{
					"ior":1.4500000476837158
				}
			},
			"name":"Material.018",
			"pbrMetallicRoughness":{
				"baseColorFactor":[
					0.015208516269922256,
					0.015208516269922256,
					0.013702086172997952,
					1
				],
				"metallicFactor":0.10000000149011612,
				"roughnessFactor":0.800000011920929
			}
		}
	],
	"meshes":[
		{
			"name":"Roundcube.002",
			"primitives":[
				{
					"attributes":{
						"POSITION":0,
						"NORMAL":1,
						"TEXCOORD_0":2
					},
					"indices":3,
					"material":0
				},
				{
					"attributes":{
						"POSITION":4,
						"NORMAL":5,
						"TEXCOORD_0":6
					},
					"indices":7,
					"material":1
				},
				{
					"attributes":{
						"POSITION":8,
						"NORMAL":9,
						"TEXCOORD_0":10
					},
					"indices":11,
					"material":2
				},
				{
					"attributes":{
						"POSITION":12,
						"NORMAL":13,
						"TEXCOORD_0":14
					},
					"indices":15,
					"material":3
				},
				{
					"attributes":{
						"POSITION":16,
						"NORMAL":17,
						"TEXCOORD_0":18
					},
					"indices":19,
					"material":4
				}
			]
		},
		{
			"name":"Cube.002",
			"primitives":[
				{
					"attributes":{
						"POSITION":20,
						"NORMAL":21,
						"TEXCOORD_0":22
					},
					"indices":23,
					"material":5
				},
				{
					"attributes":{
						"POSITION":24,
						"NORMAL":25,
						"TEXCOORD_0":26
					},
					"indices":27,
					"material":6
				},
				{
					"attributes":{
						"POSITION":28,
						"NORMAL":29,
						"TEXCOORD_0":30
					},
					"indices":31,
					"material":7
				}
			]
		}
	],
	"textures":[
		{
			"sampler":0,
			"source":0
		}
	],
	"images":[
		{
			"mimeType":"image/png",
			"name":"pet.001",
			"uri":"pet_001.png"
		}
	],
	"accessors":[
		{
			"bufferView":0,
			"componentType":5126,
			"count":24940,
			"max":[
				1.0759598016738892,
				1.735914945602417,
				1.0890575647354126
			],
			"min":[
				-1.0769401788711548,
				-1.2105746269226074,
				-1.044366478919983
			],
			"type":"VEC3"
		},
		{
			"bufferView":1,
			"componentType":5126,
			"count":24940,
			"type":"VEC3"
		},
		{
			"bufferView":2,
			"componentType":5126,
			"count":24940,
			"type":"VEC2"
		},
		{
			"bufferView":3,
			"componentType":5123,
			"count":147840,
			"type":"SCALAR"
		},
		{
			"bufferView":4,
			"componentType":5126,
			"count":441,
			"max":[
				0.11039295047521591,
				0.6139810085296631,
				1.1535937786102295
			],
			"min":[
				-0.11256872862577438,
				0.47979578375816345,
				0.9906625151634216
			],
			"type":"VEC3"
		},
		{
			"bufferView":5,
			"componentType":5126,
			"count":441,
			"type":"VEC3"
		},
		{
			"bufferView":6,
			"componentType":5126,
			"count":441,
			"type":"VEC2"
		},
		{
			"bufferView":7,
			"componentType":5123,
			"count":2304,
			"type":"SCALAR"
		},
		{
			"bufferView":8,
			"componentType":5126,
			"count":1426,
			"max":[
				0.3016774356365204,
				0.8970174193382263,
				0.7545142769813538
			],
			"min":[
				-0.302657812833786,
				0.5676066875457764,
				0.6237302422523499
			],
			"type":"VEC3"
		},
		{
			"bufferView":9,
			"componentType":5126,
			"count":1426,
			"type":"VEC3"
		},
		{
			"bufferView":10,
			"componentType":5126,
			"count":1426,
			"type":"VEC2"
		},
		{
			"bufferView":11,
			"componentType":5123,
			"count":7680,
			"type":"SCALAR"
		},
		{
			"bufferView":12,
			"componentType":5126,
			"count":3201,
			"max":[
				0.5399194359779358,
				-0.17781028151512146,
				0.34956488013267517
			],
			"min":[
				-0.5408997535705566,
				-0.3378104865550995,
				-0.5458967685699463
			],
			"type":"VEC3"
		},
		{
			"bufferView":13,
			"componentType":5126,
			"count":3201,
			"type":"VEC3"
		},
		{
			"bufferView":14,
			"componentType":5126,
			"count":3201,
			"type":"VEC2"
		},
		{
			"bufferView":15,
			"componentType":5123,
			"count":18432,
			"type":"SCALAR"
		},
		{
			"bufferView":16,
			"componentType":5126,
			"count":20480,
			"max":[
				0.7632237076759338,
				-0.8180039525032043,
				0.4063444435596466
			],
			"min":[
				-0.7530999183654785,
				-1.136333703994751,
				0.2808258831501007
			],
			"type":"VEC3"
		},
		{
			"bufferView":17,
			"componentType":5126,
			"count":20480,
			"type":"VEC3"
		},
		{
			"bufferView":18,
			"componentType":5126,
			"count":20480,
			"type":"VEC2"
		},
		{
			"bufferView":19,
			"componentType":5123,
			"count":30720,
			"type":"SCALAR"
		},
		{
			"bufferView":20,
			"componentType":5126,
			"count":9858,
			"max":[
				1.2915124893188477,
				0.04524493217468262,
				0.3820951581001282
			],
			"min":[
				-1.29151451587677,
				-0.7465985417366028,
				-0.3822517991065979
			],
			"type":"VEC3"
		},
		{
			"bufferView":21,
			"componentType":5126,
			"count":9858,
			"type":"VEC3"
		},
		{
			"bufferView":22,
			"componentType":5126,
			"count":9858,
			"type":"VEC2"
		},
		{
			"bufferView":23,
			"componentType":5123,
			"count":58368,
			"type":"SCALAR"
		},
		{
			"bufferView":24,
			"componentType":5126,
			"count":59416,
			"max":[
				1.0941556692123413,
				0.6916978359222412,
				0.4257516860961914
			],
			"min":[
				-1.0941575765609741,
				-0.7920227646827698,
				-0.42590832710266113
			],
			"type":"VEC3"
		},
		{
			"bufferView":25,
			"componentType":5126,
			"count":59416,
			"type":"VEC3"
		},
		{
			"bufferView":26,
			"componentType":5126,
			"count":59416,
			"type":"VEC2"
		},
		{
			"bufferView":27,
			"componentType":5123,
			"count":348672,
			"type":"SCALAR"
		},
		{
			"bufferView":28,
			"componentType":5126,
			"count":13954,
			"max":[
				0.9323439598083496,
				3.838539123535156e-05,
				0.34062713384628296
			],
			"min":[
				-0.9323456883430481,
				-0.7013753056526184,
				-0.3407837748527527
			],
			"type":"VEC3"
		},
		{
			"bufferView":29,
			"componentType":5126,
			"count":13954,
			"type":"VEC3"
		},
		{
			"bufferView":30,
			"componentType":5126,
			"count":13954,
			"type":"VEC2"
		},
		{
			"bufferView":31,
			"componentType":5123,
			"count":82944,
			"type":"SCALAR"
		}
	],
	"bufferViews":[
		{
			"buffer":0,
			"byteLength":299280,
			"byteOffset":0,
			"target":34962
		},
		{
			"buffer":0,
			"byteLength":299280,
			"byteOffset":299280,
			"target":34962
		},
		{
			"buffer":0,
			"byteLength":199520,
			"byteOffset":598560,
			"target":34962
		},
		{
			"buffer":0,
			"byteLength":295680,
			"byteOffset":798080,
			"target":34963
		},
		{
			"buffer":0,
			"byteLength":5292,
			"byteOffset":1093760,
			"target":34962
		},
		{
			"buffer":0,
			"byteLength":5292,
			"byteOffset":1099052,
			"target":34962
		},
		{
			"buffer":0,
			"byteLength":3528,
			"byteOffset":1104344,
			"target":34962
		},
		{
			"buffer":0,
			"byteLength":4608,
			"byteOffset":1107872,
			"target":34963
		},
		{
			"buffer":0,
			"byteLength":17112,
			"byteOffset":1112480,
			"target":34962
		},
		{
			"buffer":0,
			"byteLength":17112,
			"byteOffset":1129592,
			"target":34962
		},
		{
			"buffer":0,
			"byteLength":11408,
			"byteOffset":1146704,
			"target":34962
		},
		{
			"buffer":0,
			"byteLength":15360,
			"byteOffset":1158112,
			"target":34963
		},
		{
			"buffer":0,
			"byteLength":38412,
			"byteOffset":1173472,
			"target":34962
		},
		{
			"buffer":0,
			"byteLength":38412,
			"byteOffset":1211884,
			"target":34962
		},
		{
			"buffer":0,
			"byteLength":25608,
			"byteOffset":1250296,
			"target":34962
		},
		{
			"buffer":0,
			"byteLength":36864,
			"byteOffset":1275904,
			"target":34963
		},
		{
			"buffer":0,
			"byteLength":245760,
			"byteOffset":1312768,
			"target":34962
		},
		{
			"buffer":0,
			"byteLength":245760,
			"byteOffset":1558528,
			"target":34962
		},
		{
			"buffer":0,
			"byteLength":163840,
			"byteOffset":1804288,
			"target":34962
		},
		{
			"buffer":0,
			"byteLength":61440,
			"byteOffset":1968128,
			"target":34963
		},
		{
			"buffer":0,
			"byteLength":118296,
			"byteOffset":2029568,
			"target":34962
		},
		{
			"buffer":0,
			"byteLength":118296,
			"byteOffset":2147864,
			"target":34962
		},
		{
			"buffer":0,
			"byteLength":78864,
			"byteOffset":2266160,
			"target":34962
		},
		{
			"buffer":0,
			"byteLength":116736,
			"byteOffset":2345024,
			"target":34963
		},
		{
			"buffer":0,
			"byteLength":712992,
			"byteOffset":2461760,
			"target":34962
		},
		{
			"buffer":0,
			"byteLength":712992,
			"byteOffset":3174752,
			"target":34962
		},
		{
			"buffer":0,
			"byteLength":475328,
			"byteOffset":3887744,
			"target":34962
		},
		{
			"buffer":0,
			"byteLength":697344,
			"byteOffset":4363072,
			"target":34963
		},
		{
			"buffer":0,
			"byteLength":167448,
			"byteOffset":5060416,
			"target":34962
		},
		{
			"buffer":0,
			"byteLength":167448,
			"byteOffset":5227864,
			"target":34962
		},
		{
			"buffer":0,
			"byteLength":111632,
			"byteOffset":5395312,
			"target":34962
		},
		{
			"buffer":0,
			"byteLength":165888,
			"byteOffset":5506944,
			"target":34963
		}
	],
	"samplers":[
		{
			"magFilter":9729,
			"minFilter":9987
		}
	],
	"buffers":[
		{
			"byteLength":5672832,
			"uri":"dog.bin"
		}
	]
}
