{
	"asset":{
		"generator":"Khronos glTF Blender I/O v4.1.62",
		"version":"2.0"
	},
	"scene":0,
	"scenes":[
		{
			"name":"Scene",
			"nodes":[
				0,
				1,
				2,
				3,
				4,
				5,
				6,
				7,
				8,
				9,
				10,
				11,
				12
			]
		}
	],
	"nodes":[
		{
			"mesh":0,
			"name":"Cube"
		},
		{
			"mesh":1,
			"name":"Cube.001",
			"translation":[
				-2.0156774520874023,
				0,
				0
			]
		},
		{
			"mesh":2,
			"name":"Cylinder",
			"rotation":[
				0.5,
				-0.5,
				-0.5,
				0.5
			],
			"scale":[
				1.4283486604690552,
				1.4283486604690552,
				1.4283486604690552
			],
			"translation":[
				-1.4274342060089111,
				0.47887319326400757,
				-0.45168840885162354
			]
		},
		{
			"mesh":3,
			"name":"Cylinder.001",
			"rotation":[
				0.5,
				-0.5,
				-0.5,
				0.5
			],
			"scale":[
				0.6629178524017334,
				0.6629178524017334,
				0.6629178524017334
			],
			"translation":[
				-1.4285244941711426,
				0.04902668297290802,
				-0.4733632504940033
			]
		},
		{
			"mesh":4,
			"name":"Cylinder.002",
			"rotation":[
				0.5,
				-0.5,
				-0.5,
				0.5
			],
			"scale":[
				0.6629178524017334,
				0.6629178524017334,
				0.6629178524017334
			],
			"translation":[
				-1.4285244941711426,
				-0.23771391808986664,
				-0.4733632504940033
			]
		},
		{
			"mesh":5,
			"name":"Cylinder.004",
			"rotation":[
				0.5,
				-0.5,
				-0.5,
				0.5
			],
			"scale":[
				0.6629178524017334,
				0.6629178524017334,
				0.6629178524017334
			],
			"translation":[
				-1.5749263763427734,
				-0.09382602572441101,
				-0.4733632504940033
			]
		},
		{
			"mesh":6,
			"name":"Cylinder.003",
			"rotation":[
				0.5,
				-0.5,
				-0.5,
				0.5
			],
			"scale":[
				0.6629178524017334,
				0.6629178524017334,
				0.6629178524017334
			],
			"translation":[
				-1.2906997203826904,
				-0.09382602572441101,
				-0.4733632504940033
			]
		},
		{
			"mesh":7,
			"name":"Cube.002",
			"rotation":[
				0,
				-1,
				0,
				4.371138828673793e-08
			],
			"translation":[
				4.021303176879883,
				0.00812666118144989,
				-1.4808192253112793
			]
		},
		{
			"mesh":8,
			"name":"Cylinder.005",
			"rotation":[
				0.5,
				-0.5,
				-0.5,
				0.5
			],
			"scale":[
				0.6629178524017334,
				0.6629178524017334,
				0.6629178524017334
			],
			"translation":[
				3.4439616203308105,
				0.46743881702423096,
				-0.4733632504940033
			]
		},
		{
			"mesh":9,
			"name":"Cylinder.006",
			"rotation":[
				0.5,
				-0.5,
				-0.5,
				0.5
			],
			"scale":[
				0.6629178524017334,
				0.6629178524017334,
				0.6629178524017334
			],
			"translation":[
				3.4439616203308105,
				0.1806982010602951,
				-0.4733632504940033
			]
		},
		{
			"mesh":10,
			"name":"Cylinder.007",
			"rotation":[
				0.5,
				-0.5,
				-0.5,
				0.5
			],
			"scale":[
				0.6629178524017334,
				0.6629178524017334,
				0.6629178524017334
			],
			"translation":[
				3.2975597381591797,
				0.32458609342575073,
				-0.4733632504940033
			]
		},
		{
			"mesh":11,
			"name":"Cylinder.008",
			"rotation":[
				0.5,
				-0.5,
				-0.5,
				0.5
			],
			"scale":[
				0.6629178524017334,
				0.6629178524017334,
				0.6629178524017334
			],
			"translation":[
				3.5817863941192627,
				0.32458609342575073,
				-0.4733632504940033
			]
		},
		{
			"mesh":12,
			"name":"Cylinder.009",
			"rotation":[
				0.5,
				-0.5,
				-0.5,
				0.5
			],
			"scale":[
				1.4283486604690552,
				1.4283486604690552,
				1.4283486604690552
			],
			"translation":[
				3.453753709793091,
				-0.2858750820159912,
				-0.45168840885162354
			]
		}
	],
	"materials":[
		{
			"doubleSided":true,
			"name":"Material.007",
			"pbrMetallicRoughness":{
				"baseColorFactor":[
					0,
					0,
					0,
					1
				],
				"metallicFactor":0.5,
				"roughnessFactor":0.800000011920929
			}
		},
		{
			"doubleSided":true,
			"name":"Material.001",
			"pbrMetallicRoughness":{
				"baseColorFactor":[
					0.02191883511841297,
					0.05131145194172859,
					0.9619519710540771,
					1
				],
				"metallicFactor":0.23636363446712494,
				"roughnessFactor":0.5
			}
		},
		{
			"doubleSided":true,
			"name":"Material.003",
			"pbrMetallicRoughness":{
				"baseColorFactor":[
					0.004912777803838253,
					0.004912777803838253,
					0.004912777803838253,
					1
				],
				"metallicFactor":0.37727272510528564,
				"roughnessFactor":0.7181817889213562
			}
		},
		{
			"doubleSided":true,
			"name":"Material.005",
			"pbrMetallicRoughness":{
				"baseColorFactor":[
					0.004912777803838253,
					0.004912777803838253,
					0.004912777803838253,
					1
				],
				"metallicFactor":0.37727272510528564,
				"roughnessFactor":0.7181817889213562
			}
		},
		{
			"doubleSided":true,
			"name":"Material.002",
			"pbrMetallicRoughness":{
				"baseColorFactor":[
					0.004912777803838253,
					0.004912777803838253,
					0.004912777803838253,
					1
				],
				"metallicFactor":0.37727272510528564,
				"roughnessFactor":0.7181817889213562
			}
		},
		{
			"doubleSided":true,
			"name":"Material.006",
			"pbrMetallicRoughness":{
				"baseColorFactor":[
					0.004912777803838253,
					0.004912777803838253,
					0.004912777803838253,
					1
				],
				"metallicFactor":0.37727272510528564,
				"roughnessFactor":0.7181817889213562
			}
		},
		{
			"doubleSided":true,
			"name":"Material.004",
			"pbrMetallicRoughness":{
				"baseColorFactor":[
					0.004912777803838253,
					0.004912777803838253,
					0.004912777803838253,
					1
				],
				"metallicFactor":0.37727272510528564,
				"roughnessFactor":0.7181817889213562
			}
		},
		{
			"doubleSided":true,
			"name":"Material.010",
			"pbrMetallicRoughness":{
				"baseColorFactor":[
					0.8001489639282227,
					0.0080349026247859,
					0.0033843745477497578,
					1
				],
				"metallicFactor":0.23636363446712494,
				"roughnessFactor":0.5
			}
		}
	],
	"meshes":[
		{
			"name":"Cube.001",
			"primitives":[
				{
					"attributes":{
						"POSITION":0,
						"NORMAL":1,
						"TEXCOORD_0":2
					},
					"indices":3,
					"material":0
				}
			]
		},
		{
			"name":"Cube.002",
			"primitives":[
				{
					"attributes":{
						"POSITION":4,
						"NORMAL":5,
						"TEXCOORD_0":6
					},
					"indices":7,
					"material":1
				}
			]
		},
		{
			"name":"Cylinder",
			"primitives":[
				{
					"attributes":{
						"POSITION":8,
						"NORMAL":9,
						"TEXCOORD_0":10
					},
					"indices":11,
					"material":2
				}
			]
		},
		{
			"name":"Cylinder.001",
			"primitives":[
				{
					"attributes":{
						"POSITION":12,
						"NORMAL":13,
						"TEXCOORD_0":14
					},
					"indices":15,
					"material":3
				}
			]
		},
		{
			"name":"Cylinder.002",
			"primitives":[
				{
					"attributes":{
						"POSITION":16,
						"NORMAL":17,
						"TEXCOORD_0":18
					},
					"indices":15,
					"material":4
				}
			]
		},
		{
			"name":"Cylinder.004",
			"primitives":[
				{
					"attributes":{
						"POSITION":19,
						"NORMAL":20,
						"TEXCOORD_0":21
					},
					"indices":15,
					"material":5
				}
			]
		},
		{
			"name":"Cylinder.005",
			"primitives":[
				{
					"attributes":{
						"POSITION":22,
						"NORMAL":23,
						"TEXCOORD_0":24
					},
					"indices":15,
					"material":6
				}
			]
		},
		{
			"name":"Cube.004",
			"primitives":[
				{
					"attributes":{
						"POSITION":25,
						"NORMAL":26,
						"TEXCOORD_0":27
					},
					"indices":7,
					"material":7
				}
			]
		},
		{
			"name":"Cylinder.006",
			"primitives":[
				{
					"attributes":{
						"POSITION":28,
						"NORMAL":29,
						"TEXCOORD_0":30
					},
					"indices":15,
					"material":3
				}
			]
		},
		{
			"name":"Cylinder.007",
			"primitives":[
				{
					"attributes":{
						"POSITION":31,
						"NORMAL":32,
						"TEXCOORD_0":33
					},
					"indices":15,
					"material":4
				}
			]
		},
		{
			"name":"Cylinder.008",
			"primitives":[
				{
					"attributes":{
						"POSITION":34,
						"NORMAL":35,
						"TEXCOORD_0":36
					},
					"indices":15,
					"material":5
				}
			]
		},
		{
			"name":"Cylinder.009",
			"primitives":[
				{
					"attributes":{
						"POSITION":37,
						"NORMAL":38,
						"TEXCOORD_0":39
					},
					"indices":15,
					"material":6
				}
			]
		},
		{
			"name":"Cylinder.010",
			"primitives":[
				{
					"attributes":{
						"POSITION":40,
						"NORMAL":41,
						"TEXCOORD_0":42
					},
					"indices":11,
					"material":2
				}
			]
		}
	],
	"accessors":[
		{
			"bufferView":0,
			"componentType":5126,
			"count":129,
			"max":[
				3,
				1,
				-0.4809499979019165
			],
			"min":[
				-1,
				-1,
				-1
			],
			"type":"VEC3"
		},
		{
			"bufferView":1,
			"componentType":5126,
			"count":129,
			"type":"VEC3"
		},
		{
			"bufferView":2,
			"componentType":5126,
			"count":129,
			"type":"VEC2"
		},
		{
			"bufferView":3,
			"componentType":5123,
			"count":252,
			"type":"SCALAR"
		},
		{
			"bufferView":4,
			"componentType":5126,
			"count":404,
			"max":[
				1,
				1.0423369407653809,
				-0.48496389389038086
			],
			"min":[
				0.1149454116821289,
				-1,
				-1
			],
			"type":"VEC3"
		},
		{
			"bufferView":5,
			"componentType":5126,
			"count":404,
			"type":"VEC3"
		},
		{
			"bufferView":6,
			"componentType":5126,
			"count":404,
			"type":"VEC2"
		},
		{
			"bufferView":7,
			"componentType":5123,
			"count":846,
			"type":"SCALAR"
		},
		{
			"bufferView":8,
			"componentType":5126,
			"count":520,
			"max":[
				0.1227390393614769,
				0.09183944761753082,
				0.12905539572238922
			],
			"min":[
				-0.12273900955915451,
				-0.02659742534160614,
				-0.12905548512935638
			],
			"type":"VEC3"
		},
		{
			"bufferView":9,
			"componentType":5126,
			"count":520,
			"type":"VEC3"
		},
		{
			"bufferView":10,
			"componentType":5126,
			"count":520,
			"type":"VEC2"
		},
		{
			"bufferView":11,
			"componentType":5123,
			"count":888,
			"type":"SCALAR"
		},
		{
			"bufferView":12,
			"componentType":5126,
			"count":52,
			"max":[
				0.09510565549135208,
				0.06017202138900757,
				0.10000000149011612
			],
			"min":[
				-0.09510565549135208,
				-0.05000000074505806,
				-0.10000000149011612
			],
			"type":"VEC3"
		},
		{
			"bufferView":13,
			"componentType":5126,
			"count":52,
			"type":"VEC3"
		},
		{
			"bufferView":14,
			"componentType":5126,
			"count":52,
			"type":"VEC2"
		},
		{
			"bufferView":15,
			"componentType":5123,
			"count":168,
			"type":"SCALAR"
		},
		{
			"bufferView":16,
			"componentType":5126,
			"count":52,
			"max":[
				0.09510565549135208,
				0.06017202138900757,
				0.10000000149011612
			],
			"min":[
				-0.09510565549135208,
				-0.05000000074505806,
				-0.10000000149011612
			],
			"type":"VEC3"
		},
		{
			"bufferView":17,
			"componentType":5126,
			"count":52,
			"type":"VEC3"
		},
		{
			"bufferView":18,
			"componentType":5126,
			"count":52,
			"type":"VEC2"
		},
		{
			"bufferView":19,
			"componentType":5126,
			"count":52,
			"max":[
				0.09510565549135208,
				0.06017202138900757,
				0.10000000149011612
			],
			"min":[
				-0.09510565549135208,
				-0.05000000074505806,
				-0.10000000149011612
			],
			"type":"VEC3"
		},
		{
			"bufferView":20,
			"componentType":5126,
			"count":52,
			"type":"VEC3"
		},
		{
			"bufferView":21,
			"componentType":5126,
			"count":52,
			"type":"VEC2"
		},
		{
			"bufferView":22,
			"componentType":5126,
			"count":52,
			"max":[
				0.09510565549135208,
				0.06017202138900757,
				0.10000000149011612
			],
			"min":[
				-0.09510565549135208,
				-0.05000000074505806,
				-0.10000000149011612
			],
			"type":"VEC3"
		},
		{
			"bufferView":23,
			"componentType":5126,
			"count":52,
			"type":"VEC3"
		},
		{
			"bufferView":24,
			"componentType":5126,
			"count":52,
			"type":"VEC2"
		},
		{
			"bufferView":25,
			"componentType":5126,
			"count":404,
			"max":[
				1,
				1.0423369407653809,
				-0.48496389389038086
			],
			"min":[
				0.1149454116821289,
				-1,
				-1
			],
			"type":"VEC3"
		},
		{
			"bufferView":26,
			"componentType":5126,
			"count":404,
			"type":"VEC3"
		},
		{
			"bufferView":27,
			"componentType":5126,
			"count":404,
			"type":"VEC2"
		},
		{
			"bufferView":28,
			"componentType":5126,
			"count":52,
			"max":[
				0.09510565549135208,
				0.06017202138900757,
				0.10000000149011612
			],
			"min":[
				-0.09510565549135208,
				-0.05000000074505806,
				-0.10000000149011612
			],
			"type":"VEC3"
		},
		{
			"bufferView":29,
			"componentType":5126,
			"count":52,
			"type":"VEC3"
		},
		{
			"bufferView":30,
			"componentType":5126,
			"count":52,
			"type":"VEC2"
		},
		{
			"bufferView":31,
			"componentType":5126,
			"count":52,
			"max":[
				0.09510565549135208,
				0.06017202138900757,
				0.10000000149011612
			],
			"min":[
				-0.09510565549135208,
				-0.05000000074505806,
				-0.10000000149011612
			],
			"type":"VEC3"
		},
		{
			"bufferView":32,
			"componentType":5126,
			"count":52,
			"type":"VEC3"
		},
		{
			"bufferView":33,
			"componentType":5126,
			"count":52,
			"type":"VEC2"
		},
		{
			"bufferView":34,
			"componentType":5126,
			"count":52,
			"max":[
				0.09510565549135208,
				0.06017202138900757,
				0.10000000149011612
			],
			"min":[
				-0.09510565549135208,
				-0.05000000074505806,
				-0.10000000149011612
			],
			"type":"VEC3"
		},
		{
			"bufferView":35,
			"componentType":5126,
			"count":52,
			"type":"VEC3"
		},
		{
			"bufferView":36,
			"componentType":5126,
			"count":52,
			"type":"VEC2"
		},
		{
			"bufferView":37,
			"componentType":5126,
			"count":52,
			"max":[
				0.09510565549135208,
				0.06017202138900757,
				0.10000000149011612
			],
			"min":[
				-0.09510565549135208,
				-0.05000000074505806,
				-0.10000000149011612
			],
			"type":"VEC3"
		},
		{
			"bufferView":38,
			"componentType":5126,
			"count":52,
			"type":"VEC3"
		},
		{
			"bufferView":39,
			"componentType":5126,
			"count":52,
			"type":"VEC2"
		},
		{
			"bufferView":40,
			"componentType":5126,
			"count":520,
			"max":[
				0.1227390393614769,
				0.09183944761753082,
				0.12905539572238922
			],
			"min":[
				-0.12273900955915451,
				-0.02659742534160614,
				-0.12905548512935638
			],
			"type":"VEC3"
		},
		{
			"bufferView":41,
			"componentType":5126,
			"count":520,
			"type":"VEC3"
		},
		{
			"bufferView":42,
			"componentType":5126,
			"count":520,
			"type":"VEC2"
		}
	],
	"bufferViews":[
		{
			"buffer":0,
			"byteLength":1548,
			"byteOffset":0,
			"target":34962
		},
		{
			"buffer":0,
			"byteLength":1548,
			"byteOffset":1548,
			"target":34962
		},
		{
			"buffer":0,
			"byteLength":1032,
			"byteOffset":3096,
			"target":34962
		},
		{
			"buffer":0,
			"byteLength":504,
			"byteOffset":4128,
			"target":34963
		},
		{
			"buffer":0,
			"byteLength":4848,
			"byteOffset":4632,
			"target":34962
		},
		{
			"buffer":0,
			"byteLength":4848,
			"byteOffset":9480,
			"target":34962
		},
		{
			"buffer":0,
			"byteLength":3232,
			"byteOffset":14328,
			"target":34962
		},
		{
			"buffer":0,
			"byteLength":1692,
			"byteOffset":17560,
			"target":34963
		},
		{
			"buffer":0,
			"byteLength":6240,
			"byteOffset":19252,
			"target":34962
		},
		{
			"buffer":0,
			"byteLength":6240,
			"byteOffset":25492,
			"target":34962
		},
		{
			"buffer":0,
			"byteLength":4160,
			"byteOffset":31732,
			"target":34962
		},
		{
			"buffer":0,
			"byteLength":1776,
			"byteOffset":35892,
			"target":34963
		},
		{
			"buffer":0,
			"byteLength":624,
			"byteOffset":37668,
			"target":34962
		},
		{
			"buffer":0,
			"byteLength":624,
			"byteOffset":38292,
			"target":34962
		},
		{
			"buffer":0,
			"byteLength":416,
			"byteOffset":38916,
			"target":34962
		},
		{
			"buffer":0,
			"byteLength":336,
			"byteOffset":39332,
			"target":34963
		},
		{
			"buffer":0,
			"byteLength":624,
			"byteOffset":39668,
			"target":34962
		},
		{
			"buffer":0,
			"byteLength":624,
			"byteOffset":40292,
			"target":34962
		},
		{
			"buffer":0,
			"byteLength":416,
			"byteOffset":40916,
			"target":34962
		},
		{
			"buffer":0,
			"byteLength":624,
			"byteOffset":41332,
			"target":34962
		},
		{
			"buffer":0,
			"byteLength":624,
			"byteOffset":41956,
			"target":34962
		},
		{
			"buffer":0,
			"byteLength":416,
			"byteOffset":42580,
			"target":34962
		},
		{
			"buffer":0,
			"byteLength":624,
			"byteOffset":42996,
			"target":34962
		},
		{
			"buffer":0,
			"byteLength":624,
			"byteOffset":43620,
			"target":34962
		},
		{
			"buffer":0,
			"byteLength":416,
			"byteOffset":44244,
			"target":34962
		},
		{
			"buffer":0,
			"byteLength":4848,
			"byteOffset":44660,
			"target":34962
		},
		{
			"buffer":0,
			"byteLength":4848,
			"byteOffset":49508,
			"target":34962
		},
		{
			"buffer":0,
			"byteLength":3232,
			"byteOffset":54356,
			"target":34962
		},
		{
			"buffer":0,
			"byteLength":624,
			"byteOffset":57588,
			"target":34962
		},
		{
			"buffer":0,
			"byteLength":624,
			"byteOffset":58212,
			"target":34962
		},
		{
			"buffer":0,
			"byteLength":416,
			"byteOffset":58836,
			"target":34962
		},
		{
			"buffer":0,
			"byteLength":624,
			"byteOffset":59252,
			"target":34962
		},
		{
			"buffer":0,
			"byteLength":624,
			"byteOffset":59876,
			"target":34962
		},
		{
			"buffer":0,
			"byteLength":416,
			"byteOffset":60500,
			"target":34962
		},
		{
			"buffer":0,
			"byteLength":624,
			"byteOffset":60916,
			"target":34962
		},
		{
			"buffer":0,
			"byteLength":624,
			"byteOffset":61540,
			"target":34962
		},
		{
			"buffer":0,
			"byteLength":416,
			"byteOffset":62164,
			"target":34962
		},
		{
			"buffer":0,
			"byteLength":624,
			"byteOffset":62580,
			"target":34962
		},
		{
			"buffer":0,
			"byteLength":624,
			"byteOffset":63204,
			"target":34962
		},
		{
			"buffer":0,
			"byteLength":416,
			"byteOffset":63828,
			"target":34962
		},
		{
			"buffer":0,
			"byteLength":6240,
			"byteOffset":64244,
			"target":34962
		},
		{
			"buffer":0,
			"byteLength":6240,
			"byteOffset":70484,
			"target":34962
		},
		{
			"buffer":0,
			"byteLength":4160,
			"byteOffset":76724,
			"target":34962
		}
	],
	"buffers":[
		{
			"byteLength":80884,
			"uri":"nitendo.bin"
		}
	]
}
